<svg width="200" height="200" xmlns="http://www.w3.org/2000/svg" viewBox="0 0 100 100"><path d="M53.757 76.316h11.247c.85 0 1.546.617 1.546 1.546V90H42.006V77.862c0-.93.696-1.546 1.546-1.546h10.205zm27.696-38.86s.478.868.478 4.55c-3.908 6.098-18.776 9.72-31.93 9.72-13.153 0-28.022-3.622-31.93-9.72 0-3.683.478-4.552.478-4.552-1.547.43-4.192 1.934-4.192 4.823 0 4.41 10.534 13.793 35.645 13.793s35.646-9.384 35.646-13.793c0-2.89-2.646-4.393-4.193-4.822zM58.167 59.017c-4.084 3.302-8.428 2.954-11.12 1.303-.637-.39-2.066-1.273-3.9-2.414-6.218-.456-11.168-1.5-15.022-2.71 3.87 3.026 8.226 6.484 10.233 8.253 3.653 3.218 7.212 8.167 7.386 10.252H62.688c0-1.563 1.13-7.733 2.69-9.905 1.154-1.6 4.002-5.51 6.29-8.535-3.187.986-7.113 1.856-11.872 2.378-.547.48-1.09.943-1.63 1.378zm-2.902-43.456c-.9 2.014-2.916 3.42-5.265 3.42-2.348 0-4.364-1.406-5.265-3.42-16.92 2.703-23.842 18.128-23.842 24.696C24.456 45.818 38.01 49.12 50 49.12c11.99 0 25.544-3.302 29.107-8.862 0-6.568-6.922-21.993-23.842-24.696zM50 10c-1.775 0-3.214 1.44-3.214 3.214 0 .77.272 1.48.726 2.033.59.72 1.484 1.182 2.488 1.182s1.9-.462 2.49-1.183c.452-.554.724-1.26.724-2.033C53.214 11.44 51.774 10 50 10z"/></svg>